<svg version="1.2" xmlns="http://www.w3.org/2000/svg" viewBox="0 0 400 400" width="400" height="400">
	<style>
		.s0 { fill: #3c79d7 } 
		.s1 { fill: #ffffff } 
	</style>
	<path id="Shape 1" fill-rule="evenodd" class="s0" d="m55 0h290c30.38 0 55 24.62 55 55v290c0 30.38-24.62 55-55 55h-290c-30.38 0-55-24.62-55-55v-290c0-30.38 24.62-55 55-55z"/>
	<g id="Layer 1">
		<path id="TCP" class="s1" aria-label="TCP"  d="m131.2 103.7l-90.2-0.1v27.1l30.7 0.1-0.2 162.9h28.8l0.2-162.9h30.6zm59-2.6c-28 0-44.3 16.8-44.4 45.6l-0.1 104.2c0 28.8 16.3 45.7 44.2 45.7 28.3 0 44.9-16.8 44.9-45.6v-22.8l-27.7-1.4v21.2c0 15.2-5.7 22-16.3 22-10.6 0-16.3-6.8-16.3-19.3l0.1-103.7c0-12.5 5.8-19.3 16.3-19.3 10.6 0 16.3 6.8 16.3 22v15.5l27.7-1.3v-17.1c0-28.8-16.5-45.7-44.7-45.7zm110.7 2.8h-41.5l-0.2 190.1h28.8l0.1-78.8 12.7 0.1c31 0 47.8-16.8 47.9-48.1v-15.2c0-31.2-16.8-48-47.8-48.1zm-1.1 26.6c13.9 0.1 20.1 7.4 20.1 23.4v11.4c0 16-6.3 23.4-20.1 23.3h-11.7v-58.1z"/>
	</g>
</svg>