<svg version="1.2" xmlns="http://www.w3.org/2000/svg" viewBox="0 0 454.9979900022198 454.999" width="455" height="455">
	<style>
		.s0 { fill: none;stroke: #e5be20;stroke-width: 7.5 } 
		.s1 { fill: none;stroke: #e57f20;stroke-width: 7.5 } 
	</style>
	<g id="Layer 1">
		<path id="path4678" class="s0" d="m227 447.34c-121.85 0-220.34-98.49-220.34-220.34 0-121.85 98.49-220.34 220.34-220.34 121.85 0 220.34 98.49 220.34 220.34 0 121.85-98.49 220.34-220.34 220.34z"/>
		<path id="path4680" class="s0" d="m345.14 254.91c-15.44 0-27.92-12.48-27.92-27.91 0-15.44 12.48-27.92 27.92-27.92 15.44 0 27.92 12.48 27.92 27.92 0 15.43-12.48 27.91-27.92 27.91z"/>
		<path id="path4682" class="s0" d="m108.85 254.91c-15.44 0-27.91-12.48-27.91-27.91 0-15.44 12.47-27.92 27.91-27.92 15.44 0 27.92 12.48 27.92 27.92 0 15.43-12.48 27.91-27.92 27.91z"/>
		<path id="path4684" class="s0" d="m123.72 123.73c-10.9 10.9-10.9 28.58 0.01 39.48 10.9 10.91 28.57 10.91 39.48 0 10.89-10.9 10.9-28.57-0.01-39.47-10.9-10.91-28.58-10.91-39.48-0.01z"/>
		<path id="path4686" class="s0" d="m227 136.8c-15.44 0-27.91-12.48-27.91-27.92 0-15.44 12.47-27.92 27.91-27.92 15.43 0 27.91 12.48 27.91 27.92 0 15.44-12.48 27.92-27.91 27.92z"/>
		<path id="path4688" class="s0" d="m330.26 123.75c-10.89-10.9-28.57-10.9-39.47 0-10.91 10.9-10.91 28.58-0.01 39.48 10.9 10.9 28.58 10.9 39.48 0 10.9-10.9 10.9-28.58 0-39.48z"/>
		<path id="path4690" class="s1" d="m227 25.11c-111.5 0-201.89 90.39-201.89 201.89 0 97.47 69.08 178.8 160.95 197.72 2.76-20.16 20.02-35.71 40.94-35.71 20.91 0 38.17 15.55 40.94 35.72 91.87-18.93 160.95-100.26 160.95-197.73 0-111.5-90.39-201.89-201.89-201.89z"/>
	</g>
</svg>